<svg width="133" height="132" viewBox="0 0 133 132" fill="none" xmlns="http://www.w3.org/2000/svg">
<path d="M131.906 16.1385C131.827 16.0642 116.204 1.16531 116.204 1.16531C115.607 0.592266 114.989 0 113.836 0H50.9412C49.1041 0 47.6095 1.49443 47.6095 3.3315V13.5619L25.4423 17.3617C23.6655 17.6734 22.4706 19.3739 22.7784 21.1488L23.9035 27.7085C16.6983 30.1331 9.30098 32.6326 2.15975 35.1978C0.472314 35.8147 -0.413228 37.691 0.18891 39.3886L14.3942 78.8772C14.68 79.6718 15.4289 80.1666 16.2276 80.1666C16.4464 80.1666 16.6692 80.1295 16.8869 80.051C17.8995 79.6869 18.425 78.5709 18.0608 77.5583L4.06566 38.6537C10.7936 36.2449 17.761 33.8873 24.5703 31.5953L31.2647 70.6239L38.9678 115.572C39.246 117.158 40.6407 118.287 42.2149 118.287C42.3931 118.287 42.5739 118.273 42.7552 118.243L63.6186 114.663L79.9215 111.868L55.4019 120.681L36.0662 127.633L21.0497 85.8657C20.6857 84.8531 19.5701 84.3276 18.5572 84.6915C17.5447 85.0554 17.0191 86.1714 17.3831 87.184L32.6126 129.545C33.0997 130.877 34.3616 131.705 35.6955 131.705C36.0642 131.705 36.4385 131.642 36.8032 131.509L56.7197 124.348L101.943 108.093L110.583 106.612H129.668C131.505 106.612 133 105.115 133 103.273V18.3338C133 17.1677 132.367 16.5728 131.906 16.1385ZM126.744 16.5998H116.995L116.753 16.6009C116.286 16.604 115.194 16.612 114.916 16.3367C114.852 16.273 114.778 16.0606 114.778 15.666L114.755 5.16753L126.744 16.5998ZM129.104 102.715H51.5059V64.7462C51.5059 63.6702 50.6337 62.7979 49.5577 62.7979C48.4818 62.7979 47.6095 63.6702 47.6095 64.7462V103.273C47.6095 105.114 49.1041 106.612 50.9412 106.612H87.5194L62.9598 110.822L42.7027 114.298L35.1051 69.9651L26.7227 21.0953L47.6092 17.515V55.7063C47.6092 56.7823 48.4815 57.6545 49.5574 57.6545C50.6334 57.6545 51.5057 56.7823 51.5057 55.7063V3.89623H110.856L110.881 15.6704C110.881 17.0975 111.315 18.2519 112.171 19.1019C113.486 20.4077 115.346 20.4987 116.5 20.4987C116.599 20.4987 116.693 20.4979 116.781 20.4974L129.104 20.4966V102.715Z" fill="#7B7B7B"/>
<path d="M60.9023 30.2549C60.9023 31.3308 61.7746 32.2031 62.8506 32.2031H118.554C119.63 32.2031 120.502 31.3308 120.502 30.2549C120.502 29.1789 119.63 28.3066 118.554 28.3066H62.8506C61.7746 28.3066 60.9023 29.1789 60.9023 30.2549Z" fill="#7B7B7B"/>
<path d="M118.554 42.1406H62.8506C61.7746 42.1406 60.9023 43.0129 60.9023 44.0889C60.9023 45.1648 61.7746 46.0371 62.8506 46.0371H118.554C119.63 46.0371 120.502 45.1648 120.502 44.0889C120.502 43.0129 119.63 42.1406 118.554 42.1406Z" fill="#7B7B7B"/>
<path d="M118.554 55.9824H62.8506C61.7746 55.9824 60.9023 56.8547 60.9023 57.9307C60.9023 59.0066 61.7746 59.8789 62.8506 59.8789H118.554C119.63 59.8789 120.502 59.0066 120.502 57.9307C120.502 56.8547 119.63 55.9824 118.554 55.9824Z" fill="#7B7B7B"/>
<path d="M118.554 69.832H62.8506C61.7746 69.832 60.9023 70.7043 60.9023 71.7803C60.9023 72.8562 61.7746 73.7285 62.8506 73.7285H118.554C119.63 73.7285 120.502 72.8562 120.502 71.7803C120.502 70.7043 119.63 69.832 118.554 69.832Z" fill="#7B7B7B"/>
<path d="M118.554 83.666H62.8506C61.7746 83.666 60.9023 84.5383 60.9023 85.6143C60.9023 86.6902 61.7746 87.5625 62.8506 87.5625H118.554C119.63 87.5625 120.502 86.6902 120.502 85.6143C120.502 84.5383 119.63 83.666 118.554 83.666Z" fill="#7B7B7B"/>
</svg>
