<svg xmlns="http://www.w3.org/2000/svg" width="26" height="26" viewBox="0 0 26 26" fill="none">
  <path d="M5.4165 11.9174H18.2648L14.3323 7.19404C14.1485 6.9728 14.06 6.68758 14.0864 6.40112C14.1128 6.11466 14.2519 5.85042 14.4732 5.66654C14.6944 5.48266 14.9796 5.39419 15.2661 5.4206C15.5525 5.44701 15.8168 5.58614 16.0007 5.80737L21.4173 12.3074C21.4538 12.3591 21.4864 12.4134 21.5148 12.4699C21.5148 12.524 21.5148 12.5565 21.5907 12.6107C21.6398 12.7349 21.6655 12.8671 21.6665 13.0007C21.6655 13.1343 21.6398 13.2665 21.5907 13.3907C21.5907 13.4449 21.5907 13.4774 21.5148 13.5315C21.4864 13.588 21.4538 13.6423 21.4173 13.694L16.0007 20.194C15.8988 20.3163 15.7713 20.4147 15.6271 20.4821C15.4829 20.5495 15.3257 20.5843 15.1665 20.584C14.9134 20.5845 14.6681 20.4964 14.4732 20.3349C14.3635 20.2439 14.2728 20.1322 14.2063 20.0062C14.1399 19.8801 14.0989 19.7422 14.0858 19.6003C14.0728 19.4585 14.0878 19.3154 14.1301 19.1793C14.1724 19.0432 14.2411 18.9168 14.3323 18.8074L18.2648 14.084H5.4165C5.12918 14.084 4.85363 13.9699 4.65047 13.7667C4.44731 13.5636 4.33317 13.288 4.33317 13.0007C4.33317 12.7134 4.44731 12.4378 4.65047 12.2347C4.85363 12.0315 5.12918 11.9174 5.4165 11.9174Z" fill="#4D4E50"/>
</svg>