<svg width="24" height="24" viewBox="0 0 24 24" fill="none" xmlns="http://www.w3.org/2000/svg">
<path d="M19.1111 6.6665C16.48 6.6665 13.8331 6.6665 11.1941 6.6665C9.62966 6.6665 8.06521 6.6665 6.50077 6.6665H4.88892" stroke="#EE2E24" stroke-width="1.5" stroke-linecap="round" stroke-linejoin="round"/>
<path d="M9.33325 5.77778L9.50087 4.99364C9.62278 4.42499 9.7142 4 11.0018 4H12.998C14.2856 4 14.3847 4.44893 14.499 4.99963L14.6666 5.77778" stroke="#EE2E24" stroke-width="1.5" stroke-linecap="round" stroke-linejoin="round"/>
<path d="M17.3329 10.2222L16.8268 17.8786C16.7412 19.0723 16.6711 19.9999 14.4989 19.9999H9.50032C7.32806 19.9999 7.25799 19.0723 7.17234 17.8786L6.66626 10.2222" stroke="#EE2E24" stroke-width="1.5" stroke-linecap="round" stroke-linejoin="round"/>
<path d="M10.5156 16H13.4756" stroke="#EE2E24" stroke-width="1.5" stroke-linecap="round" stroke-linejoin="round"/>
<path d="M10.2219 12H13.7775" stroke="#EE2E24" stroke-width="1.5" stroke-linecap="round" stroke-linejoin="round"/>
</svg>
