<svg width="14" height="19" viewBox="0 0 14 19" fill="none" xmlns="http://www.w3.org/2000/svg">
<path d="M13.601 13.5166C12.0667 12.6029 10.9455 11.1053 10.4809 9.34881L9.72435 6.44671C9.16571 4.29298 7.2997 2.76781 5.12879 2.69055L4.84563 1.60662C4.63763 0.810287 3.83988 0.337852 3.06372 0.551257C2.28785 0.764661 1.82739 1.583 2.03524 2.37919L2.31797 3.46254C0.479235 4.64618 -0.392538 6.92148 0.168375 9.07287L0.924925 11.975C1.07666 12.5553 1.15352 13.1537 1.15352 13.7545C1.15324 14.9581 0.845221 16.1404 0.260297 17.1837C0.0947796 17.4687 0.116943 17.8289 0.316133 18.0901C0.466164 18.2926 0.699736 18.4115 0.947515 18.4117C1.01742 18.4115 1.08703 18.4022 1.15438 18.3835L5.33778 17.2339C5.65901 18 6.39283 18.4974 7.20578 18.5C7.78787 18.5009 8.34239 18.2459 8.72897 17.7994C9.11556 17.3531 9.29727 16.7581 9.22794 16.1652L13.4115 15.0156C13.7616 14.9191 14.0035 14.5919 14 14.2202C14.0007 13.929 13.8481 13.6599 13.601 13.5166ZM2.68438 1.5451C2.84038 1.26785 3.1288 1.09716 3.44093 1.0973C3.83647 1.09614 4.18299 1.36873 4.28472 1.76099L4.53051 2.70338C4.50295 2.70586 4.47581 2.7114 4.44825 2.71446C4.35661 2.72393 4.26568 2.73603 4.17532 2.75061C4.1273 2.75833 4.07928 2.76635 4.03154 2.77568C3.93081 2.79551 3.83121 2.8181 3.73276 2.84317C3.71088 2.84886 3.68886 2.85206 3.66726 2.85804C3.64566 2.86402 3.63203 2.86999 3.61427 2.87509C3.50316 2.90643 3.39362 2.94186 3.28579 2.98107C3.25666 2.99142 3.22938 3.0022 3.20111 3.01299C3.08887 3.05599 2.97834 3.10293 2.86965 3.15395C2.86127 3.15774 2.85232 3.1608 2.84379 3.16488L2.59829 2.22453C2.53719 1.99538 2.56817 1.75064 2.68438 1.5451ZM8.65879 16.3225C8.69928 17.0298 8.24947 17.6688 7.58228 17.8519C6.9151 18.0347 6.21453 17.7118 5.90452 17.0788L8.65879 16.3225ZM13.2582 14.4396L1.0025 17.8072C0.918674 17.8314 0.828882 17.7997 0.777025 17.7277C0.722468 17.6575 0.716643 17.5596 0.762533 17.4833C1.39931 16.349 1.73475 15.0634 1.73546 13.7545C1.73561 13.1013 1.65207 12.4511 1.48669 11.8203L0.73014 8.9185C0.215401 6.94801 1.06274 4.86935 2.79179 3.86165L2.79691 3.85932C3.04128 3.72172 3.29801 3.6086 3.5634 3.52143C3.64723 3.49301 3.72835 3.45904 3.81417 3.43601C4.10812 3.35613 4.40932 3.30759 4.71308 3.29097C4.77729 3.28733 4.84165 3.28339 4.90587 3.28281H4.95077C6.9249 3.28325 8.65225 4.64516 9.16102 6.60224L9.91757 9.50464C10.4232 11.4138 11.6424 13.0413 13.3103 14.0339C13.3772 14.0707 13.4187 14.1424 13.418 14.2202C13.4213 14.3226 13.3549 14.4137 13.2582 14.4393V14.4396Z" fill="#6D6E70"/>
</svg>
