<svg xmlns="http://www.w3.org/2000/svg" width="32" height="32" viewBox="0 0 32 32" fill="none">
  <path fill-rule="evenodd" clip-rule="evenodd" d="M9.4623 15.5255L15.5789 9.40887C15.8776 9.11017 16.3608 9.11017 16.6595 9.40887L22.7761 15.5255C23.0748 15.8231 23.0748 16.3084 22.7761 16.6061C22.4784 16.9048 21.9932 16.9048 21.6955 16.6061L16.1192 11.0308L10.5429 16.6061C10.2452 16.9048 9.75998 16.9048 9.4623 16.6061C9.16361 16.3084 9.16361 15.8231 9.4623 15.5255Z" fill="#6D6E70"/>
  <path fill-rule="evenodd" clip-rule="evenodd" d="M9.4623 20.6231L15.5789 14.5065C15.8776 14.2078 16.3608 14.2078 16.6595 14.5065L22.7761 20.6231C23.0748 20.9208 23.0748 21.406 22.7761 21.7037C22.4784 22.0024 21.9932 22.0024 21.6955 21.7037L16.1192 16.1284L10.5429 21.7037C10.2452 22.0024 9.75998 22.0024 9.4623 21.7037C9.16361 21.406 9.16361 20.9208 9.4623 20.6231Z" fill="#6D6E70"/>
</svg>