<svg width="34" height="36" viewBox="0 0 34 36" fill="none" xmlns="http://www.w3.org/2000/svg">
<circle cx="16.622" cy="17.5063" r="12.5517" fill="white"/>
<path d="M33.3005 21.0478C32.5673 19.921 31.8342 18.8344 31.1011 17.7076C30.9382 17.4661 30.9382 17.3051 31.1011 17.0636C31.8342 15.977 32.5266 14.8904 33.2597 13.8038C34.1151 12.516 33.667 11.2684 32.2008 10.7453C30.9789 10.3026 29.757 9.81964 28.5351 9.37695C28.2907 9.29646 28.1685 9.13548 28.1685 8.85377C28.1278 7.52571 28.0464 6.19764 27.9649 4.90982C27.8834 3.50127 26.7837 2.69638 25.3989 3.05858C24.0956 3.38053 22.7922 3.74273 21.5296 4.10493C21.2445 4.18542 21.0816 4.10493 20.8779 3.90371C20.0633 2.85735 19.208 1.85124 18.3934 0.845133C17.4974 -0.281711 16.1126 -0.281711 15.1758 0.845133C14.3612 1.85124 13.5059 2.85735 12.732 3.86346C12.5284 4.14517 12.3247 4.18542 11.9989 4.10493C10.7363 3.74274 9.47364 3.42078 8.57759 3.17931C6.82621 2.77687 5.76725 3.46102 5.68578 4.90982C5.60432 6.23789 5.52286 7.56595 5.48213 8.93426C5.48213 9.21597 5.35994 9.33671 5.11557 9.45744C3.85295 9.94037 2.59033 10.4233 1.32771 10.9062C0.0243633 11.4294 -0.382933 12.677 0.390928 13.8441C1.12406 14.9709 1.8572 16.0575 2.59033 17.1844C2.75324 17.4258 2.75324 17.5868 2.59033 17.8685C1.81646 18.9954 1.08333 20.1222 0.350196 21.2893C-0.342207 22.3759 0.105815 23.6637 1.3277 24.1467C2.59033 24.6296 3.89367 25.1125 5.15629 25.5955C5.44139 25.676 5.52285 25.8369 5.52285 26.1186C5.56358 27.4065 5.7265 28.654 5.7265 29.9418C5.7265 31.2297 6.86693 32.3968 8.45538 31.9138C9.71801 31.5114 10.9806 31.2297 12.2432 30.8675C12.4876 30.787 12.6505 30.8272 12.8135 31.0687C13.6688 32.115 14.4834 33.1212 15.3387 34.1675C16.2755 35.2943 17.6196 35.2943 18.5156 34.1675C19.3709 33.1212 20.1855 32.115 21.0408 31.0687C21.2038 30.8675 21.3259 30.787 21.6111 30.8675C22.9144 31.2297 24.2177 31.5516 25.5211 31.9138C26.8652 32.276 28.0056 31.4711 28.0463 30.1028C28.1278 28.7748 28.2093 27.4467 28.25 26.0784C28.25 25.7564 28.4129 25.6357 28.6573 25.5552C29.8792 25.1125 31.1418 24.6296 32.3637 24.1467C33.667 23.5027 34.0743 22.2149 33.3005 21.0478ZM23.5661 14.4478L15.4202 22.4966C15.2165 22.6979 14.9314 22.8588 14.6463 22.8991C14.5648 22.8991 14.4427 22.9393 14.3612 22.9393C13.9946 22.9393 13.5873 22.7783 13.3022 22.4966L9.9624 19.1966C9.39219 18.6332 9.39219 17.7075 9.9624 17.1441C10.5326 16.5807 11.4694 16.5807 12.0396 17.1441L14.3205 19.3978L21.4074 12.3953C21.9776 11.8319 22.9144 11.8319 23.4846 12.3953C24.1363 12.9587 24.1363 13.8843 23.5661 14.4478Z" fill="#0044B5"/>
</svg>
