<svg width="16" height="16" viewBox="0 0 16 16" fill="none" xmlns="http://www.w3.org/2000/svg">
<g clip-path="url(#clip0_7626_2938)">
<path d="M0.513417 14.0387C0.603983 14.5519 0.966247 15.0047 1.47945 15.1859C1.60021 15.2161 1.72096 15.2463 1.87191 15.2764H2.20398H2.83795L8.00021 15.3066L13.1625 15.2764H13.7964H14.1285C14.2493 15.2764 14.4002 15.2463 14.521 15.1859C15.0342 15.0047 15.3964 14.5519 15.487 14.0387C15.5172 13.767 15.487 13.5859 15.5172 13.3444V12.7104V11.4123L15.4568 6.25003L15.3964 4.98211V4.34814C15.3964 4.13682 15.3662 3.86512 15.2455 3.6538C15.0342 3.23116 14.5813 2.95946 14.0983 2.92927L13.0417 2.95946C13.0719 2.56701 13.0719 2.17456 13.1021 1.78211C13.1021 1.51041 12.9813 1.20852 12.8002 1.02739C12.5889 0.816067 12.3172 0.695312 12.0455 0.695312C11.7738 0.695312 11.4719 0.816067 11.2908 1.02739C11.0795 1.23871 10.9587 1.51041 10.9889 1.78211C10.9889 2.11418 11.0191 2.41607 11.0191 2.74814C10.3851 2.71795 9.72096 2.71795 9.087 2.74814C9.05681 2.44626 9.05681 2.11418 9.087 1.78211C9.087 1.51041 8.96625 1.20852 8.78512 1.02739C8.57379 0.816067 8.3021 0.695312 8.0304 0.695312C7.7587 0.695312 7.45681 0.816067 7.27568 1.02739C7.06436 1.23871 6.94361 1.51041 6.97379 1.78211C6.94361 2.11418 6.94361 2.44626 6.97379 2.74814C6.33983 2.71795 5.67568 2.71795 5.04172 2.74814C5.07191 2.41607 5.07191 2.11418 5.07191 1.78211C5.07191 1.51041 4.95115 1.20852 4.77002 1.02739C4.5587 0.816067 4.287 0.695312 4.0153 0.695312C3.74361 0.695312 3.44172 0.816067 3.26059 1.02739C3.01908 1.23871 2.89832 1.51041 2.89832 1.78211C2.89832 2.17456 2.92851 2.56701 2.9587 2.92927H1.9021C1.41908 2.92927 0.966247 3.23116 0.754927 3.6538C0.664361 3.86512 0.603983 4.10663 0.603983 4.31795V4.95192L0.573795 6.25003L0.513417 11.4123V12.7104V13.3444C0.513417 13.5557 0.483229 13.7368 0.513417 14.0387ZM15.004 11.4123V12.7104V13.3444C15.004 13.5557 15.004 13.7972 14.9738 13.9481C14.9134 14.2802 14.6719 14.5821 14.3398 14.6727C14.2493 14.7029 14.1889 14.7029 14.0983 14.7331C14.0379 14.7331 13.887 14.7331 13.7964 14.7331H13.1625L8.00021 14.7029H2.83795H2.20398C2.11342 14.7029 1.96247 14.7029 1.9021 14.7029C1.81153 14.7029 1.75115 14.6727 1.66059 14.6425C1.32851 14.5519 1.087 14.25 1.02662 13.918C0.996436 13.767 1.02662 13.5255 0.996436 13.3142V12.6802V11.3821L0.936059 7.21607C2.08323 7.33682 3.2304 7.3972 4.37757 7.42739C5.58512 7.48777 6.79266 7.48777 7.97002 7.48777C9.17757 7.48777 10.3851 7.45758 11.5625 7.42739C12.7096 7.3972 13.887 7.30663 15.0342 7.21607L15.004 11.4123ZM0.996436 3.77456C1.14738 3.41229 1.50964 3.17078 1.9021 3.1406L2.9587 3.11041C2.98889 3.50286 3.01908 3.89531 3.04927 4.25758C3.07946 4.49909 3.20021 4.7406 3.38134 4.86135C3.56247 5.01229 3.80398 5.07267 3.98512 5.04248C3.77379 5.01229 3.59266 4.89154 3.5021 4.77078C3.38134 4.61984 3.35115 4.43871 3.35115 4.28777C3.38134 3.86512 3.41153 3.47267 3.44172 3.05003C3.47191 2.62739 3.47191 2.23494 3.5021 1.81229C3.5021 1.5406 3.74361 1.32927 4.0153 1.32927C4.287 1.32927 4.52851 1.5406 4.52851 1.81229C4.49832 2.17456 4.52851 2.53682 4.52851 2.89909C4.52851 2.95946 4.49832 2.98965 4.49832 3.01984C4.52851 3.44248 4.5587 3.83494 4.58889 4.25758C4.61908 4.40852 4.5587 4.58965 4.46813 4.7406C4.34738 4.89154 4.19644 5.01229 3.98512 5.04248C4.19644 5.07267 4.40776 5.04248 4.58889 4.89154C4.77002 4.7406 4.92096 4.52928 4.92096 4.25758C4.95115 3.9255 4.98134 3.62361 4.98134 3.29154C5.6153 3.32173 6.24927 3.32173 6.91342 3.29154C6.94361 3.62361 6.94361 3.9255 6.97379 4.25758C7.00398 4.49909 7.12474 4.7406 7.30587 4.89154C7.487 5.04248 7.72851 5.07267 7.90964 5.04248H7.93983C7.72851 5.01229 7.57757 4.89154 7.45681 4.7406C7.33606 4.58965 7.30587 4.40852 7.33606 4.25758C7.36625 3.83494 7.39644 3.44248 7.42662 3.01984C7.42662 2.95946 7.42662 2.92928 7.39644 2.89909C7.42662 2.53682 7.42662 2.14437 7.42662 1.78211C7.42662 1.51041 7.66813 1.29909 7.93983 1.29909C8.21153 1.29909 8.45304 1.51041 8.45304 1.78211C8.48323 2.14437 8.48323 2.53682 8.48323 2.89909C8.45304 2.92928 8.45304 2.98965 8.45304 3.01984C8.48323 3.44248 8.51342 3.83494 8.54361 4.25758C8.57379 4.40852 8.51342 4.58965 8.42285 4.7406C8.3021 4.89154 8.15115 5.01229 7.93983 5.04248H7.97002C8.18134 5.07267 8.39266 5.04248 8.57379 4.89154C8.75493 4.7406 8.90587 4.52928 8.90587 4.25758C8.93606 3.9255 8.96625 3.62361 8.96625 3.29154C9.60021 3.32173 10.2342 3.32173 10.8983 3.29154C10.9285 3.62361 10.9285 3.9255 10.9587 4.25758C10.9889 4.49909 11.1096 4.7406 11.2908 4.89154C11.4719 5.04248 11.7134 5.07267 11.8945 5.04248H11.9247C11.7134 5.01229 11.5625 4.89154 11.4417 4.7406C11.321 4.58965 11.2908 4.40852 11.321 4.25758C11.3512 3.83494 11.3813 3.44248 11.4115 3.01984C11.4115 2.95946 11.4115 2.92928 11.3813 2.89909C11.4719 2.53682 11.5021 2.17456 11.5021 1.81229C11.5021 1.5406 11.7436 1.32927 12.0153 1.32927C12.287 1.32927 12.5285 1.5406 12.5285 1.81229C12.5587 2.20475 12.5587 2.62739 12.5889 3.05003C12.6191 3.47267 12.6493 3.86512 12.6795 4.28777C12.7398 4.61984 12.4681 5.01229 12.0455 5.07267C12.2568 5.10286 12.4681 5.04248 12.6493 4.89154C12.8304 4.7406 12.9512 4.52928 12.9813 4.28777C13.0115 3.89531 13.0417 3.50286 13.0719 3.1406L14.1285 3.17078C14.521 3.20097 14.8832 3.44248 15.0342 3.80475C15.1247 3.98588 15.1549 4.16701 15.1247 4.37833V5.01229L15.0945 6.31041V7.24626C13.9474 7.1255 12.77 7.06512 11.6229 7.03494C10.4153 6.97456 9.20776 6.97456 8.0304 6.97456C6.82285 6.97456 5.6153 7.00475 4.43795 7.03494C3.29078 7.06512 2.14361 7.1255 0.996436 7.24626V6.31041L0.90587 4.98211V4.34814C0.875681 4.10663 0.90587 3.9255 0.996436 3.77456Z" fill="#434242"/>
<path d="M3.62265 8.72461C3.50189 8.72461 3.41133 8.7548 3.29057 8.78499C3.16982 8.84536 3.07925 8.90574 2.9585 9.0265C3.07925 9.14725 3.16982 9.20763 3.29057 9.26801C3.41133 9.29819 3.50189 9.32838 3.62265 9.32838C3.7434 9.32838 3.83397 9.29819 3.95472 9.26801C4.07548 9.20763 4.16604 9.14725 4.2868 9.0265C4.16604 8.90574 4.07548 8.84536 3.95472 8.78499C3.83397 8.7548 3.71321 8.72461 3.62265 8.72461Z" fill="#434242"/>
<path d="M6.55136 8.72461C6.4306 8.72461 6.34004 8.7548 6.21928 8.78499C6.09853 8.84536 6.00796 8.90574 5.88721 9.0265C6.00796 9.14725 6.09853 9.20763 6.21928 9.26801C6.34004 9.29819 6.4306 9.32838 6.55136 9.32838C6.67211 9.32838 6.76268 9.29819 6.88343 9.26801C7.00419 9.20763 7.09475 9.14725 7.21551 9.0265C7.09475 8.90574 7.00419 8.84536 6.88343 8.78499C6.76268 8.7548 6.64192 8.72461 6.55136 8.72461Z" fill="#434242"/>
<path d="M9.44931 8.72461C9.32855 8.72461 9.23799 8.7548 9.11723 8.78499C8.99648 8.84536 8.90591 8.90574 8.78516 9.0265C8.90591 9.14725 8.99648 9.20763 9.11723 9.26801C9.23799 9.29819 9.32855 9.32838 9.44931 9.32838C9.57006 9.32838 9.66063 9.29819 9.78138 9.26801C9.90214 9.20763 9.9927 9.14725 10.1135 9.0265C9.9927 8.90574 9.90214 8.84536 9.78138 8.78499C9.69082 8.7548 9.57006 8.72461 9.44931 8.72461Z" fill="#434242"/>
<path d="M12.3775 8.72461C12.2568 8.72461 12.1662 8.7548 12.0455 8.78499C11.9247 8.84536 11.8341 8.90574 11.7134 9.0265C11.8341 9.14725 11.9247 9.20763 12.0455 9.26801C12.1662 9.29819 12.2568 9.32838 12.3775 9.32838C12.4983 9.32838 12.5889 9.29819 12.7096 9.26801C12.8304 9.20763 12.9209 9.14725 13.0417 9.0265C12.9209 8.90574 12.8304 8.84536 12.7096 8.78499C12.619 8.7548 12.4983 8.72461 12.3775 8.72461Z" fill="#434242"/>
<path d="M3.62289 10.8086C3.50214 10.8086 3.41157 10.8388 3.29082 10.869C3.17006 10.9293 3.07949 10.9897 2.95874 11.1105C3.07949 11.2312 3.17006 11.2916 3.29082 11.352C3.41157 11.3822 3.50214 11.4124 3.62289 11.4124C3.74365 11.4124 3.83421 11.3822 3.95497 11.352C4.07572 11.2916 4.16629 11.2312 4.28704 11.1105C4.16629 10.9897 4.07572 10.9293 3.95497 10.869C3.83421 10.8388 3.71346 10.8086 3.62289 10.8086Z" fill="#434242"/>
<path d="M6.55111 10.8086C6.43036 10.8086 6.33979 10.8388 6.21904 10.869C6.09828 10.9293 6.00772 10.9897 5.88696 11.1105C6.00772 11.2312 6.09828 11.2916 6.21904 11.352C6.33979 11.3822 6.43036 11.4124 6.55111 11.4124C6.67187 11.4124 6.76243 11.3822 6.88319 11.352C7.00394 11.2916 7.09451 11.2312 7.21526 11.1105C7.09451 10.9897 7.00394 10.9293 6.88319 10.869C6.76243 10.8388 6.64168 10.8086 6.55111 10.8086Z" fill="#434242"/>
<path d="M9.44931 10.8086C9.32855 10.8086 9.23799 10.8388 9.11723 10.869C8.99648 10.9293 8.90591 10.9897 8.78516 11.1105C8.90591 11.2312 8.99648 11.2916 9.11723 11.352C9.23799 11.3822 9.32855 11.4124 9.44931 11.4124C9.57006 11.4124 9.66063 11.3822 9.78138 11.352C9.90214 11.2916 9.9927 11.2312 10.1135 11.1105C9.9927 10.9897 9.90214 10.9293 9.78138 10.869C9.69082 10.8388 9.57006 10.8086 9.44931 10.8086Z" fill="#434242"/>
<path d="M12.3775 10.8086C12.2568 10.8086 12.1662 10.8388 12.0455 10.869C11.9247 10.9293 11.8341 10.9897 11.7134 11.1105C11.8341 11.2312 11.9247 11.2916 12.0455 11.352C12.1662 11.3822 12.2568 11.4124 12.3775 11.4124C12.4983 11.4124 12.5889 11.3822 12.7096 11.352C12.8304 11.2916 12.9209 11.2312 13.0417 11.1105C12.9209 10.9897 12.8304 10.9293 12.7096 10.869C12.619 10.8388 12.4983 10.8086 12.3775 10.8086Z" fill="#434242"/>
<path d="M3.62265 12.8906C3.50189 12.8906 3.41133 12.9208 3.29057 12.951C3.16982 13.0114 3.07925 13.0718 2.9585 13.1925C3.07925 13.3133 3.16982 13.3736 3.29057 13.434C3.41133 13.4642 3.50189 13.4944 3.62265 13.4944C3.7434 13.4944 3.83397 13.4642 3.95472 13.434C4.07548 13.3736 4.16604 13.3133 4.2868 13.1925C4.16604 13.0718 4.07548 13.0114 3.95472 12.951C3.83397 12.9208 3.71321 12.8906 3.62265 12.8906Z" fill="#434242"/>
<path d="M6.55136 12.8906C6.4306 12.8906 6.34004 12.9208 6.21928 12.951C6.09853 13.0114 6.00796 13.0718 5.88721 13.1925C6.00796 13.3133 6.09853 13.3736 6.21928 13.434C6.34004 13.4642 6.4306 13.4944 6.55136 13.4944C6.67211 13.4944 6.76268 13.4642 6.88343 13.434C7.00419 13.3736 7.09475 13.3133 7.21551 13.1925C7.09475 13.0718 7.00419 13.0114 6.88343 12.951C6.76268 12.9208 6.64192 12.8906 6.55136 12.8906Z" fill="#434242"/>
<path d="M9.44931 12.8906C9.32855 12.8906 9.23799 12.9208 9.11723 12.951C8.99648 13.0114 8.90591 13.0718 8.78516 13.1925C8.90591 13.3133 8.99648 13.3736 9.11723 13.434C9.23799 13.4642 9.32855 13.4944 9.44931 13.4944C9.57006 13.4944 9.66063 13.4642 9.78138 13.434C9.90214 13.3736 9.9927 13.3133 10.1135 13.1925C9.9927 13.0718 9.90214 13.0114 9.78138 12.951C9.69082 12.9208 9.57006 12.8906 9.44931 12.8906Z" fill="#434242"/>
<path d="M12.3775 12.8906C12.2568 12.8906 12.1662 12.9208 12.0455 12.951C11.9247 13.0114 11.8341 13.0718 11.7134 13.1925C11.8341 13.3133 11.9247 13.3736 12.0455 13.434C12.1662 13.4642 12.2568 13.4944 12.3775 13.4944C12.4983 13.4944 12.5889 13.4642 12.7096 13.434C12.8304 13.3736 12.9209 13.3133 13.0417 13.1925C12.9209 13.0718 12.8304 13.0114 12.7096 12.951C12.619 12.9208 12.4983 12.8906 12.3775 12.8906Z" fill="#434242"/>
</g>
<defs>
<clipPath id="clip0_7626_2938">
<rect width="16" height="16" fill="white"/>
</clipPath>
</defs>
</svg>
