<svg xmlns="http://www.w3.org/2000/svg" width="32" height="32" viewBox="0 0 32 32" fill="none">
  <path fill-rule="evenodd" clip-rule="evenodd" d="M9.4623 16.4745L15.5789 22.5911C15.8776 22.8898 16.3608 22.8898 16.6595 22.5911L22.7761 16.4745C23.0748 16.1769 23.0748 15.6916 22.7761 15.3939C22.4784 15.0952 21.9932 15.0952 21.6955 15.3939L16.1192 20.9692L10.5429 15.3939C10.2452 15.0952 9.75998 15.0952 9.4623 15.3939C9.16361 15.6916 9.16361 16.1769 9.4623 16.4745Z" fill="#6D6E70"/>
  <path fill-rule="evenodd" clip-rule="evenodd" d="M9.4623 11.3769L15.5789 17.4935C15.8776 17.7922 16.3608 17.7922 16.6595 17.4935L22.7761 11.3769C23.0748 11.0792 23.0748 10.594 22.7761 10.2963C22.4784 9.99759 21.9932 9.99759 21.6955 10.2963L16.1192 15.8716L10.5429 10.2963C10.2452 9.99759 9.75998 9.99759 9.4623 10.2963C9.16361 10.594 9.16361 11.0792 9.4623 11.3769Z" fill="#6D6E70"/>
</svg>