<svg width="15" height="17" viewBox="0 0 15 17" fill="none" xmlns="http://www.w3.org/2000/svg">
<path d="M7.00178 15.4415H2.91186C1.80036 15.4415 0.898518 14.5363 0.898518 13.4281V3.57104C0.898518 2.45954 1.80369 1.5577 2.91186 1.5577H7.06834C7.31793 1.5577 7.5176 1.35803 7.5176 1.10844C7.5176 0.85885 7.31793 0.65918 7.06834 0.65918H2.91186C1.30451 0.65918 0 1.96702 0 3.57104V13.4281C0 15.0355 1.30784 16.34 2.91186 16.34H7.00178C7.25137 16.34 7.45104 16.1403 7.45104 15.8907C7.45104 15.6411 7.24804 15.4415 7.00178 15.4415Z" fill="#6D6E70"/>
<path d="M14.4027 8.18288L11.5474 5.32759C11.3711 5.15122 11.0882 5.15122 10.9118 5.32759C10.7355 5.50397 10.7355 5.78684 10.9118 5.96321L13.0017 8.0531H3.88676C3.63717 8.0531 3.4375 8.25277 3.4375 8.50236C3.4375 8.75195 3.63717 8.95162 3.88676 8.95162H13.0017L10.9118 11.0415C10.7355 11.2179 10.7355 11.5007 10.9118 11.6771C10.9984 11.7636 11.1148 11.8102 11.228 11.8102C11.3411 11.8102 11.4576 11.767 11.5441 11.6771L14.3994 8.82183C14.5791 8.64213 14.5791 8.35593 14.4027 8.18288Z" fill="#6D6E70"/>
</svg>
