<svg width="18" height="19" viewBox="0 0 18 19" fill="none" xmlns="http://www.w3.org/2000/svg">
<path d="M17.179 3.02566C17.1687 3.01599 15.1341 1.0756 15.1341 1.0756C15.0563 1.00096 14.9759 0.923828 14.8257 0.923828H6.63445C6.39519 0.923828 6.20053 1.11846 6.20053 1.35771V2.69009L3.31354 3.18497C3.08213 3.22557 2.92651 3.44703 2.9666 3.6782L3.11312 4.5325C2.17475 4.84828 1.21133 5.17381 0.281281 5.50789C0.061513 5.58824 -0.0538177 5.8326 0.0246031 6.05369L1.87466 11.1966C1.91188 11.3001 2.00941 11.3645 2.11344 11.3645C2.14193 11.3645 2.17096 11.3597 2.19931 11.3495C2.33118 11.302 2.39962 11.1567 2.35219 11.0248L0.5295 5.95798C1.40573 5.64427 2.31315 5.33721 3.19997 5.03872L4.07183 10.1217L5.07506 15.9756C5.1113 16.1822 5.29294 16.3292 5.49795 16.3292C5.52116 16.3292 5.54471 16.3274 5.56832 16.3235L8.28551 15.8572L10.4088 15.4932L7.2154 16.641L4.69717 17.5464L2.74145 12.1067C2.69406 11.9749 2.54875 11.9064 2.41684 11.9538C2.28497 12.0012 2.21653 12.1466 2.26393 12.2784L4.24738 17.7954C4.31082 17.9689 4.47517 18.0768 4.64889 18.0768C4.6969 18.0768 4.74565 18.0685 4.79315 18.0512L7.38702 17.1186L13.2768 15.0016L14.402 14.8087H16.8876C17.1269 14.8087 17.3216 14.6137 17.3216 14.3739V3.31157C17.3216 3.1597 17.2392 3.08223 17.179 3.02566ZM16.5068 3.08575H15.2371L15.2056 3.08588C15.1448 3.08629 15.0025 3.08734 14.9664 3.05147C14.9581 3.04319 14.9483 3.01551 14.9483 2.96412L14.9454 1.59683L16.5068 3.08575ZM16.8141 14.3012H6.708V9.35619C6.708 9.21607 6.59439 9.10246 6.45426 9.10246C6.31413 9.10246 6.20053 9.21607 6.20053 9.35619V14.3738C6.20053 14.6136 6.39519 14.8087 6.63445 14.8087H11.3983L8.19972 15.3569L5.56149 15.8097L4.57199 10.0359L3.48029 3.67123L6.20049 3.20493V8.17887C6.20049 8.319 6.3141 8.4326 6.45423 8.4326C6.59436 8.4326 6.70796 8.319 6.70796 8.17887V1.43126H14.4376L14.4409 2.9647C14.4409 3.15057 14.4974 3.30091 14.6089 3.41161C14.7802 3.58168 15.0223 3.59352 15.1726 3.59352C15.1855 3.59352 15.1978 3.59342 15.2092 3.59335L16.8141 3.59325V14.3012Z" fill="#6D6E70"/>
<path d="M7.92969 4.86409C7.92969 5.00421 8.04329 5.11782 8.18342 5.11782H15.4381C15.5782 5.11782 15.6918 5.00421 15.6918 4.86409C15.6918 4.72396 15.5782 4.61035 15.4381 4.61035H8.18342C8.04329 4.61035 7.92969 4.72396 7.92969 4.86409Z" fill="#6D6E70"/>
<path d="M15.4381 6.41211H8.18342C8.04329 6.41211 7.92969 6.52571 7.92969 6.66584C7.92969 6.80597 8.04329 6.91958 8.18342 6.91958H15.4381C15.5782 6.91958 15.6918 6.80597 15.6918 6.66584C15.6918 6.52571 15.5782 6.41211 15.4381 6.41211Z" fill="#6D6E70"/>
<path d="M15.4381 8.21484H8.18342C8.04329 8.21484 7.92969 8.32845 7.92969 8.46858C7.92969 8.60871 8.04329 8.72231 8.18342 8.72231H15.4381C15.5782 8.72231 15.6918 8.60871 15.6918 8.46858C15.6918 8.32845 15.5782 8.21484 15.4381 8.21484Z" fill="#6D6E70"/>
<path d="M15.4381 10.0186H8.18342C8.04329 10.0186 7.92969 10.1322 7.92969 10.2723C7.92969 10.4124 8.04329 10.526 8.18342 10.526H15.4381C15.5782 10.526 15.6918 10.4124 15.6918 10.2723C15.6918 10.1322 15.5782 10.0186 15.4381 10.0186Z" fill="#6D6E70"/>
<path d="M15.4381 11.8203H8.18342C8.04329 11.8203 7.92969 11.9339 7.92969 12.074C7.92969 12.2142 8.04329 12.3278 8.18342 12.3278H15.4381C15.5782 12.3278 15.6918 12.2142 15.6918 12.074C15.6918 11.9339 15.5782 11.8203 15.4381 11.8203Z" fill="#6D6E70"/>
</svg>
