<svg width="14" height="19" viewBox="0 0 14 19" fill="none" xmlns="http://www.w3.org/2000/svg">
<path d="M11 5.83728C11.7293 5.83728 12.4288 6.12701 12.9445 6.64274C13.4603 7.15846 13.75 7.85794 13.75 8.58728V15.9206C13.75 16.65 13.4603 17.3494 12.9445 17.8652C12.4288 18.3809 11.7293 18.6706 11 18.6706H2.75C2.02065 18.6706 1.32118 18.3809 0.805456 17.8652C0.289731 17.3494 0 16.65 0 15.9206V8.58728C0 7.85794 0.289731 7.15846 0.805456 6.64274C1.32118 6.12701 2.02065 5.83728 2.75 5.83728H10.0833V4.46228C10.0848 3.65015 9.77821 2.86768 9.22542 2.27271C8.67264 1.67775 7.91478 1.31456 7.10473 1.2564C6.29468 1.19825 5.49272 1.44947 4.86062 1.95937C4.22851 2.46928 3.81331 3.19993 3.69875 4.00395H2.77475C2.89019 2.95475 3.40344 1.98972 4.20887 1.30749C5.0143 0.625262 6.05061 0.277746 7.10451 0.336472C8.1584 0.395198 9.14969 0.855697 9.87434 1.62319C10.599 2.39067 11.0018 3.40675 11 4.46228V5.83728ZM2.75 6.75395C2.26377 6.75395 1.79745 6.9471 1.45364 7.29092C1.10982 7.63474 0.916667 8.10105 0.916667 8.58728V15.9206C0.916667 16.4068 1.10982 16.8732 1.45364 17.217C1.79745 17.5608 2.26377 17.754 2.75 17.754H11C11.4862 17.754 11.9525 17.5608 12.2964 17.217C12.6402 16.8732 12.8333 16.4068 12.8333 15.9206V8.58728C12.8333 8.10105 12.6402 7.63474 12.2964 7.29092C11.9525 6.9471 11.4862 6.75395 11 6.75395H2.75ZM6.875 11.3373C6.51033 11.3373 6.16059 11.4821 5.90273 11.74C5.64487 11.9979 5.5 12.3476 5.5 12.7123C5.5 13.077 5.64487 13.4267 5.90273 13.6846C6.16059 13.9424 6.51033 14.0873 6.875 14.0873C7.23967 14.0873 7.58941 13.9424 7.84727 13.6846C8.10513 13.4267 8.25 13.077 8.25 12.7123C8.25 12.3476 8.10513 11.9979 7.84727 11.74C7.58941 11.4821 7.23967 11.3373 6.875 11.3373ZM6.875 10.4206C7.48279 10.4206 8.06568 10.6621 8.49545 11.0918C8.92522 11.5216 9.16667 12.1045 9.16667 12.7123C9.16667 13.3201 8.92522 13.903 8.49545 14.3327C8.06568 14.7625 7.48279 15.0039 6.875 15.0039C6.26721 15.0039 5.68432 14.7625 5.25455 14.3327C4.82478 13.903 4.58333 13.3201 4.58333 12.7123C4.58333 12.1045 4.82478 11.5216 5.25455 11.0918C5.68432 10.6621 6.26721 10.4206 6.875 10.4206Z" fill="#6D6E70"/>
</svg>
