<svg xmlns="http://www.w3.org/2000/svg" width="12" height="12" viewBox="0 0 12 12" fill="none">
  <path fill-rule="evenodd" clip-rule="evenodd" d="M0.195341 6.02725L5.52887 11.3608C5.78933 11.6212 6.21067 11.6212 6.47113 11.3608L11.8047 6.02725C12.0651 5.76768 12.0651 5.34455 11.8047 5.08499C11.5451 4.82453 11.122 4.82453 10.8624 5.08499L6 9.9465L1.1376 5.08499C0.878033 4.82453 0.454906 4.82453 0.195341 5.08499C-0.0651135 5.34455 -0.0651135 5.76768 0.195341 6.02725Z" fill="white"/>
  <path fill-rule="evenodd" clip-rule="evenodd" d="M0.195341 1.58193L5.52887 6.91546C5.78933 7.17592 6.21067 7.17592 6.47113 6.91546L11.8047 1.58193C12.0651 1.32237 12.0651 0.899242 11.8047 0.639677C11.5451 0.379222 11.122 0.379222 10.8624 0.639677L6 5.50119L1.1376 0.639677C0.878033 0.379222 0.454906 0.379222 0.195341 0.639677C-0.0651135 0.899242 -0.0651135 1.32237 0.195341 1.58193Z" fill="white"/>
</svg>