<svg width="1905" height="480" viewBox="0 0 1905 480" fill="none" xmlns="http://www.w3.org/2000/svg">
<rect width="1905" height="480" fill="#152571"/>
<path d="M512 480H0V153C30.5682 163.406 70.3747 174.632 99.6862 188.406C232.437 250.798 351.959 331.953 461.248 432.362C475.199 445.182 500.945 464.64 512 480Z" fill="#FAB62B"/>
<path d="M1538 4.06079e-09L1721 0L1905 0V480H1662H1419H1272C1259 480 1257 480 1251.5 480C1258.05 390.7 1258 358.5 1279.5 266.5C1318.12 145.915 1341.72 107.763 1444 4.06089e-09C1459 -9.01182e-05 1517 4.06089e-09 1538 4.06079e-09Z" fill="#3C882E"/>
</svg>
