<svg width="22" height="25" viewBox="0 0 22 25" fill="none" xmlns="http://www.w3.org/2000/svg">
<mask id="path-1-inside-1" fill="white">
<path d="M16.7947 18.7279C15.3545 17.2338 14.5575 15.2165 14.577 13.1139L14.6216 9.64346C14.6578 7.06881 13.0337 4.79007 10.6217 4.03142L10.6377 2.73503C10.6495 1.78262 9.89982 1.00869 8.96326 1.00622C8.02702 1.00384 7.25844 1.77372 7.24654 2.72593L7.23024 4.02154C4.80276 4.77181 3.12414 7.03891 3.09116 9.61166L3.04657 13.0821C3.03817 13.7762 2.94019 14.4673 2.75521 15.1373C2.38434 16.4793 1.67475 17.7023 0.697273 18.6844C0.423826 18.9509 0.337804 19.3594 0.480878 19.7124C0.586882 19.9847 0.812333 20.1897 1.0903 20.2666C1.16877 20.2881 1.24976 20.2992 1.33106 20.2993L6.37884 20.3132C6.50339 21.2671 7.17363 22.049 8.08496 22.3037C8.7378 22.485 9.43847 22.3725 10.0097 21.9944C10.5808 21.6164 10.9679 21.0092 11.0726 20.3267L16.1206 20.3406C16.5431 20.3415 16.9152 20.0517 17.0257 19.6361C17.1162 19.3116 17.0278 18.9642 16.7947 18.7279ZM8.23167 1.99694C8.49206 1.7361 8.86821 1.63511 9.21839 1.73196C9.66255 1.85319 9.96743 2.26449 9.9608 2.73341L9.94646 3.8604C9.91477 3.85462 9.88261 3.85239 9.85075 3.84727C9.74501 3.82945 9.63926 3.81477 9.53339 3.80303C9.47713 3.79677 9.42078 3.79084 9.36435 3.78645C9.24522 3.77735 9.12652 3.7717 9.00833 3.76915C8.98203 3.76871 8.95634 3.76547 8.93027 3.76544C8.90419 3.76542 8.88705 3.76786 8.86555 3.76805C8.73125 3.76858 8.59744 3.77414 8.46437 3.78446C8.42851 3.78698 8.39458 3.79056 8.35954 3.79383C8.22036 3.80701 8.08189 3.82511 7.94424 3.84833C7.93367 3.84996 7.92268 3.8506 7.91186 3.85251L7.9259 2.72789C7.9279 2.45344 8.038 2.19012 8.23167 1.99694ZM10.3856 20.3258C10.2133 21.127 9.51188 21.7002 8.70692 21.6977C7.90206 21.6948 7.21541 21.1178 7.06247 20.3158L10.3856 20.3258ZM16.1259 19.6509L1.33809 19.6095C1.23659 19.6106 1.14558 19.5475 1.10957 19.4511C1.06999 19.3559 1.09356 19.245 1.16857 19.174C2.23223 18.1065 3.00441 16.7768 3.40815 15.3175C3.6094 14.5892 3.71586 13.8382 3.72449 13.0837L3.76899 9.61354C3.79809 7.25681 5.38875 5.20142 7.639 4.61336L7.64546 4.61235C7.96201 4.53461 8.28489 4.488 8.6095 4.47301C8.71231 4.46728 8.81379 4.45454 8.91716 4.45544C9.27157 4.45742 9.62447 4.4966 9.9704 4.57217C10.0436 4.588 10.117 4.60355 10.1892 4.62279L10.2396 4.6367C12.4545 5.24872 13.9733 7.30246 13.9416 9.64239L13.897 13.1132C13.8766 15.3986 14.7434 17.5911 16.3093 19.2147C16.373 19.2764 16.3975 19.3692 16.3728 19.4558C16.3449 19.5709 16.2424 19.652 16.126 19.6506L16.1259 19.6509Z"/>
</mask>
<path d="M16.7947 18.7279C15.3545 17.2338 14.5575 15.2165 14.577 13.1139L14.6216 9.64346C14.6578 7.06881 13.0337 4.79007 10.6217 4.03142L10.6377 2.73503C10.6495 1.78262 9.89982 1.00869 8.96326 1.00622C8.02702 1.00384 7.25844 1.77372 7.24654 2.72593L7.23024 4.02154C4.80276 4.77181 3.12414 7.03891 3.09116 9.61166L3.04657 13.0821C3.03817 13.7762 2.94019 14.4673 2.75521 15.1373C2.38434 16.4793 1.67475 17.7023 0.697273 18.6844C0.423826 18.9509 0.337804 19.3594 0.480878 19.7124C0.586882 19.9847 0.812333 20.1897 1.0903 20.2666C1.16877 20.2881 1.24976 20.2992 1.33106 20.2993L6.37884 20.3132C6.50339 21.2671 7.17363 22.049 8.08496 22.3037C8.7378 22.485 9.43847 22.3725 10.0097 21.9944C10.5808 21.6164 10.9679 21.0092 11.0726 20.3267L16.1206 20.3406C16.5431 20.3415 16.9152 20.0517 17.0257 19.6361C17.1162 19.3116 17.0278 18.9642 16.7947 18.7279ZM8.23167 1.99694C8.49206 1.7361 8.86821 1.63511 9.21839 1.73196C9.66255 1.85319 9.96743 2.26449 9.9608 2.73341L9.94646 3.8604C9.91477 3.85462 9.88261 3.85239 9.85075 3.84727C9.74501 3.82945 9.63926 3.81477 9.53339 3.80303C9.47713 3.79677 9.42078 3.79084 9.36435 3.78645C9.24522 3.77735 9.12652 3.7717 9.00833 3.76915C8.98203 3.76871 8.95634 3.76547 8.93027 3.76544C8.90419 3.76542 8.88705 3.76786 8.86555 3.76805C8.73125 3.76858 8.59744 3.77414 8.46437 3.78446C8.42851 3.78698 8.39458 3.79056 8.35954 3.79383C8.22036 3.80701 8.08189 3.82511 7.94424 3.84833C7.93367 3.84996 7.92268 3.8506 7.91186 3.85251L7.9259 2.72789C7.9279 2.45344 8.038 2.19012 8.23167 1.99694ZM10.3856 20.3258C10.2133 21.127 9.51188 21.7002 8.70692 21.6977C7.90206 21.6948 7.21541 21.1178 7.06247 20.3158L10.3856 20.3258ZM16.1259 19.6509L1.33809 19.6095C1.23659 19.6106 1.14558 19.5475 1.10957 19.4511C1.06999 19.3559 1.09356 19.245 1.16857 19.174C2.23223 18.1065 3.00441 16.7768 3.40815 15.3175C3.6094 14.5892 3.71586 13.8382 3.72449 13.0837L3.76899 9.61354C3.79809 7.25681 5.38875 5.20142 7.639 4.61336L7.64546 4.61235C7.96201 4.53461 8.28489 4.488 8.6095 4.47301C8.71231 4.46728 8.81379 4.45454 8.91716 4.45544C9.27157 4.45742 9.62447 4.4966 9.9704 4.57217C10.0436 4.588 10.117 4.60355 10.1892 4.62279L10.2396 4.6367C12.4545 5.24872 13.9733 7.30246 13.9416 9.64239L13.897 13.1132C13.8766 15.3986 14.7434 17.5911 16.3093 19.2147C16.373 19.2764 16.3975 19.3692 16.3728 19.4558C16.3449 19.5709 16.2424 19.652 16.126 19.6506L16.1259 19.6509Z" fill="#0C0B0B"/>
<path d="M14.577 13.1139L12.5771 13.0882L12.5771 13.0954L14.577 13.1139ZM14.6216 9.64346L12.6218 9.6153L12.6217 9.61776L14.6216 9.64346ZM10.6217 4.03142L8.62183 4.00675L8.60349 5.49324L10.0216 5.93928L10.6217 4.03142ZM10.6377 2.73503L8.63783 2.71029L8.63783 2.71035L10.6377 2.73503ZM8.96326 1.00622L8.96853 -0.993774L8.96835 -0.993774L8.96326 1.00622ZM7.24654 2.72593L9.24638 2.75108L9.24638 2.75092L7.24654 2.72593ZM7.23024 4.02154L7.82082 5.93236L9.21177 5.50245L9.23009 4.04669L7.23024 4.02154ZM3.09116 9.61166L5.09099 9.63735L5.09099 9.63729L3.09116 9.61166ZM3.04657 13.0821L1.04673 13.0564L1.04672 13.0579L3.04657 13.0821ZM2.75521 15.1373L4.68295 15.67L4.68308 15.6695L2.75521 15.1373ZM0.697273 18.6844L2.09318 20.1167L2.10409 20.1061L2.11485 20.0953L0.697273 18.6844ZM0.480878 19.7124L2.34459 18.9868L2.33959 18.9739L2.33441 18.9611L0.480878 19.7124ZM1.0903 20.2666L0.556907 22.1941L0.562034 22.1956L1.0903 20.2666ZM1.33106 20.2993L1.33658 18.2993L1.33243 18.2993L1.33106 20.2993ZM6.37884 20.3132L8.362 20.0542L8.13528 18.3181L6.38435 18.3132L6.37884 20.3132ZM8.08496 22.3037L7.54652 24.2299L7.54982 24.2308L8.08496 22.3037ZM10.0097 21.9944L8.90599 20.3265L8.90572 20.3267L10.0097 21.9944ZM11.0726 20.3267L11.0782 18.3267L9.35682 18.3219L9.09577 20.0234L11.0726 20.3267ZM16.1206 20.3406L16.115 22.3406L16.1166 22.3406L16.1206 20.3406ZM17.0257 19.6361L15.0991 19.0991L15.0959 19.1107L15.0928 19.1224L17.0257 19.6361ZM8.23167 1.99694L9.6441 3.41293L9.6471 3.40994L8.23167 1.99694ZM9.21839 1.73196L8.68523 3.6596L8.69178 3.66139L9.21839 1.73196ZM9.9608 2.73341L7.961 2.70515L7.96097 2.70795L9.9608 2.73341ZM9.94646 3.8604L9.58788 5.82799L11.9162 6.2523L11.9463 3.88586L9.94646 3.8604ZM9.85075 3.84727L9.51834 5.81945L9.52576 5.8207L9.5332 5.8219L9.85075 3.84727ZM9.53339 3.80303L9.31218 5.79076L9.31303 5.79086L9.53339 3.80303ZM9.36435 3.78645L9.51928 1.79246L9.51665 1.79226L9.36435 3.78645ZM9.00833 3.76915L9.05134 1.76959L9.04167 1.76943L9.00833 3.76915ZM8.93027 3.76544L8.92832 5.76544L8.92832 5.76544L8.93027 3.76544ZM8.86555 3.76805L8.87345 5.76805L8.88301 5.76797L8.86555 3.76805ZM8.46437 3.78446L8.60446 5.77955L8.61174 5.77904L8.61902 5.77847L8.46437 3.78446ZM8.35954 3.79383L8.17372 1.80248L8.17095 1.80274L8.35954 3.79383ZM7.94424 3.84833L8.24891 5.82499L8.26293 5.82283L8.27693 5.82046L7.94424 3.84833ZM7.91186 3.85251L5.91201 3.82755L5.88188 6.24185L8.25959 5.82205L7.91186 3.85251ZM7.9259 2.72789L9.92577 2.75285L9.92584 2.74246L7.9259 2.72789ZM10.3856 20.3258L12.3409 20.7463L12.8599 18.3331L10.3916 18.3258L10.3856 20.3258ZM8.70692 21.6977L8.69985 23.6977L8.70066 23.6977L8.70692 21.6977ZM7.06247 20.3158L7.06844 18.3158L4.64365 18.3086L5.09788 20.6905L7.06247 20.3158ZM16.1259 19.6509L16.1203 21.6509L17.6473 21.6552L18.0537 20.1832L16.1259 19.6509ZM1.33809 19.6095L1.34369 17.6095L1.33089 17.6095L1.31808 17.6096L1.33809 19.6095ZM1.10957 19.4511L2.98299 18.7509L2.97032 18.717L2.95643 18.6836L1.10957 19.4511ZM1.16857 19.174L2.54304 20.6269L2.56449 20.6066L2.58532 20.5857L1.16857 19.174ZM3.40815 15.3175L5.33573 15.8509L5.33591 15.8502L3.40815 15.3175ZM3.72449 13.0837L1.72465 13.058L1.72462 13.0608L3.72449 13.0837ZM3.76899 9.61354L5.76883 9.63919L5.76884 9.63823L3.76899 9.61354ZM7.639 4.61336L7.32803 2.63769L7.22967 2.65317L7.13333 2.67835L7.639 4.61336ZM7.64546 4.61235L7.95643 6.58802L8.04016 6.57485L8.12247 6.55463L7.64546 4.61235ZM8.6095 4.47301L8.70175 6.47088L8.71128 6.47044L8.7208 6.46991L8.6095 4.47301ZM8.91716 4.45544L8.89973 6.45537L8.90596 6.45541L8.91716 4.45544ZM9.9704 4.57217L9.54358 6.5261L9.54754 6.52695L9.9704 4.57217ZM10.1892 4.62279L10.7215 2.69491L10.7128 2.69251L10.7041 2.69019L10.1892 4.62279ZM10.2396 4.6367L10.7723 2.70894L10.7719 2.70882L10.2396 4.6367ZM13.9416 9.64239L11.9418 9.61532L11.9418 9.61664L13.9416 9.64239ZM13.897 13.1132L11.8971 13.0874L11.897 13.0953L13.897 13.1132ZM16.3093 19.2147L14.8697 20.6031L14.8938 20.6281L14.9187 20.6522L16.3093 19.2147ZM16.3728 19.4558L14.4498 18.9059L14.4385 18.9456L14.4288 18.9858L16.3728 19.4558ZM16.126 19.6506L16.1494 17.6508L14.6083 17.6327L14.1981 19.1184L16.126 19.6506ZM18.2346 17.3399C17.1635 16.2287 16.5622 14.7186 16.5769 13.1325L12.5771 13.0954C12.5528 15.7144 13.5455 18.239 15.3547 20.1159L18.2346 17.3399ZM16.5768 13.1396L16.6214 9.66915L12.6217 9.61776L12.5772 13.0882L16.5768 13.1396ZM16.6214 9.67161C16.6698 6.23585 14.4982 3.15411 11.2218 2.12357L10.0216 5.93928C11.5691 6.42602 12.6459 7.90177 12.6218 9.6153L16.6214 9.67161ZM12.6215 4.0561L12.6375 2.75971L8.63783 2.71035L8.62183 4.00675L12.6215 4.0561ZM12.6375 2.75977C12.6627 0.727475 11.0492 -0.988289 8.96853 -0.993773L8.95799 3.00621C8.75043 3.00567 8.63625 2.83776 8.63783 2.71029L12.6375 2.75977ZM8.96835 -0.993774C6.904 -0.999023 5.2719 0.683591 5.2467 2.70094L9.24638 2.75092C9.24497 2.86385 9.15005 3.0067 8.95818 3.00621L8.96835 -0.993774ZM5.2467 2.70077L5.2304 3.99639L9.23009 4.04669L9.24638 2.75108L5.2467 2.70077ZM6.63966 2.11072C3.36886 3.12164 1.13523 6.16088 1.09132 9.58602L5.09099 9.63729C5.11305 7.91694 6.23666 6.42198 7.82082 5.93236L6.63966 2.11072ZM1.09132 9.58596L1.04673 13.0564L5.0464 13.1078L5.09099 9.63735L1.09132 9.58596ZM1.04672 13.0579C1.04039 13.58 0.966672 14.1003 0.827333 14.605L4.68308 15.6695C4.9137 14.8342 5.03594 13.9724 5.04642 13.1063L1.04672 13.0579ZM0.827459 14.6045C0.547824 15.6165 0.013227 16.5366 -0.720301 17.2736L2.11485 20.0953C3.33627 18.868 4.22086 17.3422 4.68295 15.67L0.827459 14.6045ZM-0.698634 17.2521C-1.55204 18.0839 -1.82212 19.3548 -1.37265 20.4637L2.33441 18.9611C2.49773 19.3641 2.39969 19.818 2.09318 20.1167L-0.698634 17.2521ZM-1.38283 20.4381C-1.05133 21.2895 -0.338464 21.9464 0.556909 22.1941L1.62369 18.339C1.96313 18.4329 2.22509 18.6799 2.34459 18.9868L-1.38283 20.4381ZM0.562034 22.1956C0.808215 22.263 1.0663 22.2991 1.32969 22.2993L1.33243 18.2993C1.43322 18.2994 1.52933 18.3132 1.61857 18.3376L0.562034 22.1956ZM1.32554 22.2993L6.37332 22.3132L6.38435 18.3132L1.33658 18.2993L1.32554 22.2993ZM4.39567 20.5722C4.62181 22.3039 5.84637 23.7546 7.54652 24.2299L8.62341 20.3776C8.50089 20.3433 8.38498 20.2302 8.362 20.0542L4.39567 20.5722ZM7.54982 24.2308C8.76753 24.569 10.0653 24.3561 11.1136 23.6621L8.90572 20.3267C8.81168 20.3889 8.70806 20.4011 8.62011 20.3767L7.54982 24.2308ZM11.1134 23.6623C12.1593 22.9701 12.86 21.8651 13.0495 20.63L9.09577 20.0234C9.07583 20.1534 9.00236 20.2627 8.90599 20.3265L11.1134 23.6623ZM11.0671 22.3267L16.115 22.3406L16.1261 18.3407L11.0782 18.3267L11.0671 22.3267ZM16.1166 22.3406C17.4706 22.3433 18.6209 21.4204 18.9586 20.1498L15.0928 19.1224C15.2096 18.683 15.6155 18.3396 16.1245 18.3406L16.1166 22.3406ZM18.9523 20.1731C19.2316 19.1708 18.9642 18.0794 18.2186 17.3234L15.3708 20.1324C15.0913 19.8491 15.0007 19.4523 15.0991 19.0991L18.9523 20.1731ZM9.6471 3.40994C9.40722 3.65022 9.04212 3.7583 8.68523 3.65959L9.75155 -0.195666C8.6943 -0.488086 7.57689 -0.17802 6.81624 0.583937L9.6471 3.40994ZM8.69178 3.66139C8.23257 3.53605 7.95508 3.12405 7.961 2.70515L11.9606 2.76166C11.9798 1.40493 11.0925 0.170324 9.745 -0.197464L8.69178 3.66139ZM7.96097 2.70795L7.94662 3.83494L11.9463 3.88586L11.9606 2.75887L7.96097 2.70795ZM10.305 1.8928C10.2613 1.88484 10.2238 1.87925 10.1964 1.87546C10.1698 1.87179 10.1471 1.86906 10.1372 1.86786C10.1222 1.86607 10.1262 1.86655 10.1279 1.86676C10.1323 1.86733 10.1474 1.86928 10.1683 1.87264L9.5332 5.8219C9.57 5.82782 9.60106 5.83197 9.62147 5.83457C9.63184 5.8359 9.64084 5.83699 9.64705 5.83774C9.65018 5.83812 9.65307 5.83847 9.65516 5.83872C9.65754 5.839 9.6588 5.83915 9.66015 5.83931C9.66619 5.84004 9.65945 5.83927 9.64883 5.8378C9.63732 5.83621 9.61574 5.83307 9.58788 5.82799L10.305 1.8928ZM10.1832 1.87509C10.0393 1.85084 9.89619 1.831 9.75375 1.81521L9.31303 5.79086C9.38234 5.79854 9.4507 5.80805 9.51834 5.81945L10.1832 1.87509ZM9.7546 1.8153C9.69287 1.80843 9.60985 1.7995 9.51928 1.79246L9.20941 5.78044C9.23172 5.78217 9.26139 5.78511 9.31218 5.79076L9.7546 1.8153ZM9.51665 1.79226C9.35971 1.78027 9.20453 1.77291 9.05134 1.76962L8.96532 5.76869C9.04851 5.77048 9.13074 5.77443 9.21205 5.78064L9.51665 1.79226ZM9.04167 1.76943C9.07002 1.7699 9.09149 1.77101 9.101 1.77155C9.10805 1.77194 9.11525 1.77244 9.10298 1.77162C9.09588 1.77115 9.07328 1.76961 9.04669 1.76832C9.01886 1.76697 8.97926 1.76549 8.93221 1.76544L8.92832 5.76544C8.8943 5.76541 8.86769 5.76434 8.85283 5.76362C8.84524 5.76325 8.83956 5.76292 8.83683 5.76275C8.83433 5.76259 8.83307 5.76251 8.83545 5.76267C8.83615 5.76271 8.84309 5.76318 8.84866 5.76355C8.85525 5.76398 8.86499 5.7646 8.87641 5.76524C8.89895 5.76651 8.93349 5.76818 8.97499 5.76888L9.04167 1.76943ZM8.93221 1.76544C8.85445 1.76537 8.79289 1.76924 8.77326 1.77045C8.77138 1.77056 8.769 1.77071 8.76854 1.77074C8.76756 1.7708 8.76765 1.77079 8.76811 1.77077C8.76899 1.77071 8.7736 1.77043 8.78009 1.77011C8.7937 1.76942 8.81774 1.76839 8.8481 1.76812L8.88301 5.76797C8.92412 5.76761 8.95837 5.7662 8.98205 5.76501C8.99358 5.76442 9.00319 5.76386 9.0091 5.7635C9.01207 5.76332 9.01468 5.76316 9.01623 5.76306C9.01829 5.76294 9.01845 5.76292 9.01913 5.76288C9.02115 5.76276 9.00944 5.76351 8.99342 5.76416C8.97595 5.76487 8.95382 5.76547 8.92832 5.76544L8.93221 1.76544ZM8.85766 1.76806C8.67334 1.76879 8.49058 1.77642 8.30973 1.79045L8.61902 5.77847C8.7043 5.77186 8.78915 5.76836 8.87345 5.76803L8.85766 1.76806ZM8.32428 1.78937C8.2579 1.79403 8.17845 1.80204 8.17372 1.80248L8.54536 5.78518C8.55752 5.78404 8.56913 5.78292 8.57733 5.78213C8.58649 5.78125 8.59218 5.7807 8.59741 5.78022C8.6075 5.77928 8.60806 5.7793 8.60446 5.77955L8.32428 1.78937ZM8.17095 1.80274C7.98465 1.82038 7.79809 1.84473 7.61155 1.87619L8.27693 5.82046C8.3657 5.80549 8.45608 5.79363 8.54812 5.78492L8.17095 1.80274ZM7.63957 1.87167C7.66799 1.86729 7.69009 1.86458 7.70029 1.86337C7.7056 1.86274 7.70948 1.8623 7.71035 1.86221C7.7108 1.86216 7.71103 1.86213 7.71039 1.8622C7.71003 1.86224 7.70858 1.8624 7.70713 1.86256C7.70209 1.86312 7.68382 1.86515 7.66143 1.86806C7.63818 1.8711 7.60442 1.87586 7.56412 1.88297L8.25959 5.82205C8.22471 5.82821 8.19638 5.83217 8.17856 5.8345C8.16947 5.83568 8.16212 5.83657 8.15736 5.83713C8.15274 5.83767 8.14942 5.83804 8.14915 5.83807C8.14906 5.83808 8.14896 5.83809 8.14996 5.83798C8.15066 5.8379 8.15225 5.83772 8.15405 5.83752C8.15761 5.83712 8.16419 5.83639 8.17219 5.83543C8.18032 5.83447 8.19112 5.83314 8.20375 5.83147C8.21642 5.82978 8.23167 5.82764 8.24891 5.82499L7.63957 1.87167ZM9.9117 3.87747L9.92574 2.75285L5.92605 2.70292L5.91201 3.82755L9.9117 3.87747ZM9.92584 2.74246C9.92403 2.9919 9.82468 3.23281 9.6441 3.41293L6.81924 0.580943C6.25131 1.14744 5.93177 1.91498 5.92595 2.71331L9.92584 2.74246ZM8.43032 19.9052C8.45141 19.8072 8.54845 19.6972 8.71319 19.6977L8.70066 23.6977C10.4753 23.7032 11.9752 22.4467 12.3409 20.7463L8.43032 19.9052ZM8.714 19.6977C8.88692 19.6983 9.00449 19.8228 9.02707 19.9412L5.09788 20.6905C5.42632 22.4128 6.91719 23.6914 8.69985 23.6977L8.714 19.6977ZM7.0565 22.3158L10.3796 22.3257L10.3916 18.3258L7.06844 18.3158L7.0565 22.3158ZM16.1315 17.651L1.34369 17.6095L1.3325 21.6095L16.1203 21.6509L16.1315 17.651ZM1.31808 17.6096C2.07339 17.6021 2.72958 18.0729 2.98299 18.7509L-0.763854 20.1513C-0.438414 21.022 0.399798 21.619 1.35811 21.6094L1.31808 17.6096ZM2.95643 18.6836C3.23549 19.3551 3.07075 20.1277 2.54304 20.6269L-0.205907 17.7212C-0.88363 18.3623 -1.09552 19.3567 -0.737295 20.2186L2.95643 18.6836ZM2.58532 20.5857C3.89327 19.273 4.84063 17.6403 5.33573 15.8509L1.48057 14.7842C1.16818 15.9133 0.571185 16.94 -0.248192 17.7624L2.58532 20.5857ZM5.33591 15.8502C5.58292 14.9563 5.71376 14.034 5.72436 13.1065L1.72462 13.0608C1.71797 13.6425 1.63588 14.2221 1.48039 14.7849L5.33591 15.8502ZM5.72433 13.1093L5.76883 9.63919L1.76915 9.5879L1.72465 13.058L5.72433 13.1093ZM5.76884 9.63823C5.78703 8.16488 6.78232 6.9044 8.14468 6.54838L7.13333 2.67835C3.99518 3.49843 1.80915 6.34875 1.76914 9.58885L5.76884 9.63823ZM7.94998 6.58904L7.95643 6.58802L7.33449 2.63667L7.32803 2.63769L7.94998 6.58904ZM8.12247 6.55463C8.3129 6.50786 8.50692 6.47988 8.70175 6.47088L8.51726 2.47514C8.06286 2.49612 7.61112 2.56135 7.16845 2.67007L8.12247 6.55463ZM8.7208 6.46991C8.76818 6.46727 8.81071 6.46409 8.8412 6.46172C8.85586 6.46058 8.87195 6.4593 8.88239 6.45848C8.89434 6.45753 8.90316 6.45684 8.91089 6.45627C8.94523 6.45373 8.93141 6.45564 8.89973 6.45536L8.93459 2.45552C8.79954 2.45434 8.68329 2.46217 8.61534 2.46721C8.51937 2.47432 8.52708 2.4745 8.49821 2.47611L8.7208 6.46991ZM8.90596 6.45541C9.12036 6.45661 9.33396 6.4803 9.54358 6.52609L10.3972 2.61824C9.91497 2.5129 9.42279 2.45824 8.92836 2.45547L8.90596 6.45541ZM9.54754 6.52695C9.63736 6.54638 9.65809 6.55104 9.67439 6.55539L10.7041 2.69019C10.5759 2.65605 10.4498 2.62961 10.3933 2.61738L9.54754 6.52695ZM9.65697 6.55066L9.70734 6.56457L10.7719 2.70882L10.7215 2.69491L9.65697 6.55066ZM9.70692 6.56445C11.0224 6.92795 11.9615 8.16094 11.9418 9.61532L15.9415 9.66945C15.9851 6.44398 13.8866 3.56949 10.7723 2.70894L9.70692 6.56445ZM11.9418 9.61664L11.8971 13.0874L15.8968 13.1389L15.9415 9.66813L11.9418 9.61664ZM11.897 13.0953C11.872 15.8971 12.9347 18.5967 14.8697 20.6031L17.7489 17.8264C16.5521 16.5855 15.8811 14.9002 15.8969 13.131L11.897 13.0953ZM14.9187 20.6522C14.4425 20.1915 14.2751 19.5167 14.4498 18.9059L18.2957 20.0058C18.5199 19.2218 18.3036 18.3613 17.6998 17.7772L14.9187 20.6522ZM14.4288 18.9858C14.614 18.2198 15.3081 17.6409 16.1494 17.6508L16.1025 21.6505C17.1767 21.6631 18.0758 20.9221 18.3167 19.9259L14.4288 18.9858ZM14.1981 19.1184L14.198 19.1187L18.0537 20.1832L18.0538 20.1829L14.1981 19.1184Z" fill="black" mask="url(#path-1-inside-1)"/>
</svg>
