<svg width="24" height="24" viewBox="0 0 24 24" fill="none" xmlns="http://www.w3.org/2000/svg">
<path d="M20 6C17.04 6 14.0622 6 11.0933 6C9.33333 6 7.57333 6 5.81333 6H4" stroke="#ABADAF" stroke-width="1.5" stroke-linecap="round" stroke-linejoin="round"/>
<path d="M9 5L9.18857 4.11785C9.32571 3.47811 9.42857 3 10.8771 3H13.1229C14.5714 3 14.6829 3.50505 14.8114 4.12458L15 5" stroke="#ABADAF" stroke-width="1.5" stroke-linecap="round" stroke-linejoin="round"/>
<path d="M18 10L17.4307 18.6135C17.3343 19.9565 17.2555 21 14.8117 21H9.18832C6.74453 21 6.66569 19.9565 6.56934 18.6135L6 10" stroke="#ABADAF" stroke-width="1.5" stroke-linecap="round" stroke-linejoin="round"/>
<path d="M10.3301 16.5H13.6601" stroke="#ABADAF" stroke-width="1.5" stroke-linecap="round" stroke-linejoin="round"/>
<path d="M10 12H14" stroke="#ABADAF" stroke-width="1.5" stroke-linecap="round" stroke-linejoin="round"/>
</svg>
